<svg xmlns="http://www.w3.org/2000/svg" viewBox="0 0 19 19"><rect width="19" height="19" fill="#fff"/><path fill="#b22234" d="M0 0h19v1.46H0zm0 2.92h19v1.46H0zm0 2.92h19V8.76H0zm0 2.92h19v1.46H0zm0 2.92h19v1.46H0zm0 2.92h19V16.1H0zm0 2.92h19V19H0z"/><path fill="#3c3b6e" d="M0 0h8.2v10.22H0z"/><g fill="#fff"><circle cx="1.2" cy="1.1" r=".35"/><circle cx="3" cy="1.1" r=".35"/><circle cx="4.8" cy="1.1" r=".35"/><circle cx="6.6" cy="1.1" r=".35"/><circle cx="2.1" cy="2.5" r=".35"/><circle cx="3.9" cy="2.5" r=".35"/><circle cx="5.7" cy="2.5" r=".35"/><circle cx="7.5" cy="2.5" r=".35"/><circle cx="1.2" cy="3.9" r=".35"/><circle cx="3" cy="3.9" r=".35"/><circle cx="4.8" cy="3.9" r=".35"/><circle cx="6.6" cy="3.9" r=".35"/><circle cx="2.1" cy="5.3" r=".35"/><circle cx="3.9" cy="5.3" r=".35"/><circle cx="5.7" cy="5.3" r=".35"/><circle cx="7.5" cy="5.3" r=".35"/><circle cx="1.2" cy="6.7" r=".35"/><circle cx="3" cy="6.7" r=".35"/><circle cx="4.8" cy="6.7" r=".35"/><circle cx="6.6" cy="6.7" r=".35"/><circle cx="2.1" cy="8.1" r=".35"/><circle cx="3.9" cy="8.1" r=".35"/><circle cx="5.7" cy="8.1" r=".35"/><circle cx="7.5" cy="8.1" r=".35"/></g></svg>